<mxfile host="app.diagrams.net" modified="2023-01-30T10:27:28.470Z" agent="5.0 (Macintosh; Intel Mac OS X 10_15_2) AppleWebKit/537.36 (KHTML, like Gecko) Chrome/109.0.0.0 Safari/537.36" etag="WNZUeHG1j73Uex4mbdVj" version="20.8.13" type="github">
  <diagram name="第 1 页" id="eZQGetwpd9z0T2bNy8JU">
    <mxGraphModel dx="1363" dy="731" grid="1" gridSize="10" guides="1" tooltips="1" connect="1" arrows="1" fold="1" page="1" pageScale="1" pageWidth="827" pageHeight="1169" math="0" shadow="0">
      <root>
        <mxCell id="0" />
        <mxCell id="1" parent="0" />
        <mxCell id="ZQ3UDDYDQ9gYklotWdSz-1" value="" style="shape=note;whiteSpace=wrap;html=1;backgroundOutline=1;darkOpacity=0.05;strokeWidth=2;" vertex="1" parent="1">
          <mxGeometry x="100" y="170" width="110" height="150" as="geometry" />
        </mxCell>
        <mxCell id="ZQ3UDDYDQ9gYklotWdSz-2" value="" style="endArrow=none;html=1;rounded=0;strokeWidth=2;dashed=1;" edge="1" parent="1">
          <mxGeometry width="50" height="50" relative="1" as="geometry">
            <mxPoint x="40" y="140" as="sourcePoint" />
            <mxPoint x="290" y="140" as="targetPoint" />
          </mxGeometry>
        </mxCell>
        <mxCell id="ZQ3UDDYDQ9gYklotWdSz-3" value="&lt;span style=&quot;font-size: 16px;&quot;&gt;&lt;b&gt;Disable ScrollX&lt;/b&gt;&lt;/span&gt;" style="text;html=1;strokeColor=#b85450;fillColor=#f8cecc;align=center;verticalAlign=middle;whiteSpace=wrap;rounded=0;" vertex="1" parent="1">
          <mxGeometry x="90" y="100" width="120" height="30" as="geometry" />
        </mxCell>
        <mxCell id="ZQ3UDDYDQ9gYklotWdSz-5" value="" style="endArrow=none;html=1;rounded=0;strokeWidth=2;dashed=1;" edge="1" parent="1">
          <mxGeometry width="50" height="50" relative="1" as="geometry">
            <mxPoint x="310" y="140" as="sourcePoint" />
            <mxPoint x="560" y="140" as="targetPoint" />
          </mxGeometry>
        </mxCell>
        <mxCell id="ZQ3UDDYDQ9gYklotWdSz-6" value="&lt;span style=&quot;font-size: 16px;&quot;&gt;&lt;b&gt;Disable ScrollX&lt;/b&gt;&lt;/span&gt;" style="text;html=1;strokeColor=#b85450;fillColor=#f8cecc;align=center;verticalAlign=middle;whiteSpace=wrap;rounded=0;" vertex="1" parent="1">
          <mxGeometry x="360" y="100" width="120" height="30" as="geometry" />
        </mxCell>
        <mxCell id="ZQ3UDDYDQ9gYklotWdSz-8" value="" style="shape=note;whiteSpace=wrap;html=1;backgroundOutline=1;darkOpacity=0.05;strokeWidth=2;" vertex="1" parent="1">
          <mxGeometry x="650" y="270" width="110" height="150" as="geometry" />
        </mxCell>
        <mxCell id="ZQ3UDDYDQ9gYklotWdSz-9" value="" style="endArrow=none;html=1;rounded=0;strokeWidth=2;dashed=1;" edge="1" parent="1">
          <mxGeometry width="50" height="50" relative="1" as="geometry">
            <mxPoint x="590" y="140" as="sourcePoint" />
            <mxPoint x="840" y="140" as="targetPoint" />
          </mxGeometry>
        </mxCell>
        <mxCell id="ZQ3UDDYDQ9gYklotWdSz-10" value="&lt;span style=&quot;font-size: 16px;&quot;&gt;&lt;b&gt;Enable ScrollX&lt;/b&gt;&lt;/span&gt;" style="text;html=1;strokeColor=#6c8ebf;fillColor=#dae8fc;align=center;verticalAlign=middle;whiteSpace=wrap;rounded=0;" vertex="1" parent="1">
          <mxGeometry x="640" y="100" width="120" height="30" as="geometry" />
        </mxCell>
        <mxCell id="ZQ3UDDYDQ9gYklotWdSz-23" value="" style="endArrow=classic;html=1;rounded=0;strokeWidth=2;" edge="1" parent="1">
          <mxGeometry width="50" height="50" relative="1" as="geometry">
            <mxPoint x="250" y="180" as="sourcePoint" />
            <mxPoint x="250" y="230" as="targetPoint" />
          </mxGeometry>
        </mxCell>
        <mxCell id="ZQ3UDDYDQ9gYklotWdSz-25" value="" style="endArrow=classic;html=1;rounded=0;strokeWidth=2;" edge="1" parent="1">
          <mxGeometry width="50" height="50" relative="1" as="geometry">
            <mxPoint x="520" y="180" as="sourcePoint" />
            <mxPoint x="520" y="230" as="targetPoint" />
          </mxGeometry>
        </mxCell>
        <mxCell id="ZQ3UDDYDQ9gYklotWdSz-26" value="" style="shape=note;whiteSpace=wrap;html=1;backgroundOutline=1;darkOpacity=0.05;strokeWidth=2;dashed=1;" vertex="1" parent="1">
          <mxGeometry x="359" y="170" width="110" height="150" as="geometry" />
        </mxCell>
        <mxCell id="ZQ3UDDYDQ9gYklotWdSz-24" value="" style="shape=note;whiteSpace=wrap;html=1;backgroundOutline=1;darkOpacity=0.05;strokeWidth=2;" vertex="1" parent="1">
          <mxGeometry x="359" y="270" width="110" height="150" as="geometry" />
        </mxCell>
        <mxCell id="ZQ3UDDYDQ9gYklotWdSz-27" value="@touchstart" style="text;html=1;strokeColor=none;fillColor=none;align=center;verticalAlign=middle;whiteSpace=wrap;rounded=0;" vertex="1" parent="1">
          <mxGeometry x="120" y="70" width="60" height="30" as="geometry" />
        </mxCell>
        <mxCell id="ZQ3UDDYDQ9gYklotWdSz-28" value="@touchmove" style="text;html=1;strokeColor=none;fillColor=none;align=center;verticalAlign=middle;whiteSpace=wrap;rounded=0;" vertex="1" parent="1">
          <mxGeometry x="390" y="70" width="60" height="30" as="geometry" />
        </mxCell>
        <mxCell id="ZQ3UDDYDQ9gYklotWdSz-29" value="@touchend" style="text;html=1;strokeColor=none;fillColor=none;align=center;verticalAlign=middle;whiteSpace=wrap;rounded=0;" vertex="1" parent="1">
          <mxGeometry x="660" y="70" width="60" height="30" as="geometry" />
        </mxCell>
      </root>
    </mxGraphModel>
  </diagram>
</mxfile>
